<?xml version="1.0" encoding="UTF-8"?>
<svg width="29.706mm" height="30.425mm" version="1.1" viewBox="0 0 29.706 30.425" xmlns="http://www.w3.org/2000/svg" xmlns:cc="http://creativecommons.org/ns#" xmlns:dc="http://purl.org/dc/elements/1.1/" xmlns:rdf="http://www.w3.org/1999/02/22-rdf-syntax-ns#" xmlns:xlink="http://www.w3.org/1999/xlink">
 <defs>
  <linearGradient id="linearGradient854" x1="190.28" x2="359.72" y1="235" y2="235" gradientTransform="matrix(.26458 0 0 .26458 -.94494 76.069)" gradientUnits="userSpaceOnUse">
   <stop stop-color="#ff4713" offset="0"/>
   <stop stop-color="#ff4713" offset="1"/>
  </linearGradient>
 </defs>
 <metadata>
  <rdf:RDF>
   <cc:Work rdf:about="">
    <dc:format>image/svg+xml</dc:format>
    <dc:type rdf:resource="http://purl.org/dc/dcmitype/StillImage"/>
    <dc:title/>
   </cc:Work>
  </rdf:RDF>
 </metadata>
 <g transform="translate(-56.962 -106.5)">
  <path d="m80.041 120.47c-0.95827 0.02-1.7169 0.79855-1.7169 1.7369v0.59892h0.59892c0.93831 0 1.7169-0.79856 1.7169-1.7568v-0.57895zm-10.202-13.615c0 0.0599-0.01995 0.0998-0.01995 0.15971 0 0.51906 0.39928 0.97823 0.9383 1.078l0.35935 0.0399 0.03993-0.35935c0-0.0599 0.01995-0.11978 0.01995-0.15971 0-0.53903-0.39928-0.97823-0.91834-1.0581l-0.37932-0.0599zm9.1834 20.703c0.03993 1.3576 1.118 2.4156 2.4755 2.4156h0.07986 0.81852v-0.83848c-0.03993-1.3376-1.118-2.4156-2.4755-2.4156h-0.07985-0.81852zm-3.4737 3.4538c-0.23956 0.13974-0.37931 0.39928-0.37931 0.67877 0 0.13975 0.03993 0.2795 0.11978 0.41925l0.13975 0.2196 0.2196-0.13975c0.25953-0.15971 0.39928-0.41924 0.39928-0.67877 0-0.13975-0.05989-0.2795-0.11978-0.39928l-0.13975-0.23957zm-0.29946-20.004c-0.03993 0.0998-0.03993 0.19963-0.03993 0.27949 0 0.45917 0.29946 0.89838 0.75863 1.0381l0.35935 0.11979 0.09982-0.33939c0.03993-0.0998 0.05989-0.2196 0.05989-0.31942 0-0.45917-0.29946-0.89838-0.7786-1.0182l-0.35935-0.11978zm2.4156 22.26c0.07986-0.19964 0.11978-0.39928 0.11978-0.57895 0-0.51906-0.29946-0.9982-0.79856-1.2577l-0.41924-0.17967-0.19964 0.41924c-0.07985 0.17967-0.11978 0.37931-0.11978 0.57895 0 0.51907 0.29946 1.0182 0.79856 1.2378l0.41924 0.19963zm5.5699-17.528c0.13975-0.41924 0.19964-0.83849 0.19964-1.2777 0-1.7369-1.118-3.3739-2.8948-3.9329l-1.3376-0.41925-0.45917 1.3376c-0.11978 0.41924-0.19964 0.83848-0.19964 1.2378 0 1.7768 1.1579 3.4138 2.9147 3.9728l1.3575 0.41924zm-14.174-6.2487c0.25953 0.19964 0.57895 0.29947 0.87841 0.29947 0.39928 0 0.81852-0.17968 1.078-0.53903l0.31942-0.33938-0.35935-0.29946c-0.25953-0.21961-0.55899-0.31943-0.87841-0.31943-0.39928 0-0.81852 0.19964-1.098 0.51906l-0.29946 0.37932zm15.093 5.6498c-0.39928 0.0799-0.65881 0.45917-0.65881 0.83849 0 0.0799 0 0.11978 0.01995 0.19964l0.07986 0.27949 0.27949-0.0599c0.37932-0.0998 0.65881-0.45917 0.65881-0.83849 0-0.0798-0.01995-0.13974-0.03993-0.2196l-0.03993-0.27949zm-5.7496 17.588v-0.0798c0-0.21961-0.13975-0.37932-0.33938-0.41925l-0.13975-0.0199-0.03993 0.13975v0.0799c0 0.19964 0.13975 0.37932 0.35935 0.41925h0.13975zm0.51906-3.314c0.01998-0.11978 0.03993-0.2196 0.03993-0.33938 0-0.77859-0.55899-1.4773-1.3176-1.657l-0.55899-0.11979-0.11978 0.55899c-0.01995 0.11979-0.01995 0.25954-0.01995 0.37932 0 0.77859 0.51906 1.4773 1.2977 1.637l0.55899 0.11978zm4.6316-12.378c-0.79856 0.53902-1.2378 1.4174-1.2378 2.3158 0 0.53903 0.15971 1.0581 0.47913 1.5372l0.53902 0.79856 0.75863-0.53903c0.81852-0.53902 1.2378-1.3975 1.2378-2.2958 0-0.51906-0.13975-1.0581-0.45917-1.5372l-0.53902-0.81852zm-5.53-1.4574c0 0.0599-0.01998 0.11978-0.01998 0.19964 0 0.7187 0.55899 1.3576 1.3176 1.4574l0.4991 0.0799 0.05989-0.51906c0-0.0599 0.01995-0.11978 0.01995-0.17967 0-0.73867-0.55899-1.4174-1.2977-1.4973l-0.4991-0.0599zm3.1543 5.1707c-0.05989 0.19963-0.09982 0.37931-0.09982 0.57895 0 0.61888 0.35935 1.2577 0.95827 1.4574l0.4991 0.17968 0.19964-0.47914c0.05989-0.19964 0.09982-0.39927 0.09982-0.59891 0-0.61888-0.35935-1.1779-0.95827-1.4174l-0.47913-0.19964zm-5.2505 7.0273c-0.11978-0.11979-0.27949-0.19964-0.41924-0.19964-0.15971 0-0.29946 0.0799-0.43921 0.17967l-0.13975 0.15971 0.13975 0.13975c0.13975 0.11978 0.27949 0.17967 0.43921 0.17967 0.15971 0 0.29946-0.0599 0.41924-0.15971l0.15971-0.15971zm-4.4919 0.35934c-0.13975-0.15971-0.35935-0.2196-0.57895-0.2196-0.17967 0-0.37932 0.0399-0.53902 0.17967l-0.19964 0.13975 0.15971 0.15971c0.15971 0.15971 0.35935 0.23957 0.57895 0.23957 0.15971 0 0.35935-0.0599 0.51906-0.17968l0.2196-0.13974zm-3.7732-18.906c-0.4991 0.11979-0.81852 0.53903-0.81852 1.0182 0 0.0599 0 0.15971 0.01995 0.21961l0.07986 0.35935 0.35935-0.0998c0.47913-0.0998 0.79856-0.51906 0.79856-0.9982 0-0.0798 0-0.15971-0.01995-0.23956l-0.07985-0.33938zm-1.7768 14.514c-0.27949 0.13975-0.45917 0.45917-0.45917 0.75863 0 0.0998 0.01998 0.2196 0.07986 0.31942l0.11978 0.23957 0.2196-0.13975c0.27949-0.13975 0.45917-0.4392 0.45917-0.73867 0-0.11978-0.01998-0.23956-0.07985-0.33938l-0.11979-0.23956zm12.837-14.134c0.11978 0.0799 0.23957 0.13974 0.37932 0.13974 0.15971 0 0.31942-0.0599 0.45917-0.19963l0.11978-0.15971-0.15971-0.13975c-0.09982-0.0798-0.23956-0.13975-0.37932-0.13975-0.15971 0-0.31942 0.0799-0.45917 0.19964l-0.11978 0.17967zm2.3557 21.082c-0.17967-0.4991-0.63885-0.81852-1.118-0.81852-0.11978 0-0.27949 0.0399-0.39928 0.0799l-0.39928 0.13974 0.11978 0.37932c0.17967 0.4991 0.65881 0.79855 1.1379 0.79855 0.15971 0 0.27949 0 0.41924-0.0599l0.37932-0.11978zm-6.6679-19.066c0.39928-0.2196 0.63885-0.63884 0.63885-1.078 0-0.2196-0.05989-0.4392-0.17967-0.63884l-0.2196-0.35935-0.35935 0.19963c-0.39928 0.21961-0.63885 0.65881-0.63885 1.098 0 0.19964 0.05989 0.43921 0.17967 0.61888l0.2196 0.37932zm2.8548 5.3703c0.35935-0.27949 0.55899-0.67878 0.55899-1.098 0-0.27949-0.09982-0.55899-0.25953-0.79856l-0.25953-0.35935-0.37932 0.2795c-0.37931 0.25953-0.55899 0.67877-0.55899 1.098 0 0.2795 0.07986 0.53903 0.25953 0.79856l0.25953 0.33938zm1.2777 2.1361c-0.15971-0.0998-0.35935-0.15971-0.53902-0.15971-0.29946 0-0.59892 0.13974-0.7786 0.41924l-0.17967 0.27949 0.27949 0.15971c0.15971 0.11979 0.35935 0.15971 0.51906 0.15971 0.29946 0 0.57895-0.13974 0.75863-0.39927l0.19964-0.25954zm-4.452-11.799c-0.03993 0.17968-0.07985 0.35936-0.07985 0.53903 0 0.77859 0.4991 1.4973 1.2777 1.7568l0.59892 0.19963 0.17967-0.59891c0.05989-0.19964 0.07986-0.37932 0.07986-0.55899 0-0.77859-0.4991-1.4973-1.2777-1.7369l-0.57896-0.19964zm-0.07985 4.8712c-0.39928 0.0399-0.67878 0.35935-0.67878 0.73866v0.33944l0.25953-0.0399c0.39928-0.0399 0.67878-0.35935 0.67878-0.7187v-0.33943zm3.0145 12.138c0.31942 0.77859 0.9982 1.2378 1.7568 1.2378 0.29946 0 0.61888-0.0798 0.91834-0.23956l0.63885-0.31942-0.25953-0.69874c-0.31942-0.75863-1.0182-1.1978-1.7568-1.1978-0.29946 0-0.61888 0.0599-0.91834 0.2196l-0.63885 0.33939zm7.167 2.5154c0.09982-0.2196 0.13975-0.41924 0.13975-0.63884 0-0.55899-0.31942-1.0781-0.87841-1.3176l-0.4991-0.23957-0.2196 0.45917c-0.09982 0.21961-0.13975 0.41924-0.13975 0.63885 0 0.57895 0.31942 1.098 0.87841 1.3576l0.47913 0.2196zm-11.479 7.5464c1.2577-0.11978 2.196-1.1779 2.196-2.4356v-0.19964l-0.07985-0.79855-0.81852 0.0599c-1.2577 0.11978-2.216 1.1579-2.216 2.4156 0 0.0599 0.01995 0.13975 0.01995 0.2196l0.05989 0.79856zm4.9111-11.839c-0.09982-0.0599-0.17967-0.0798-0.25953-0.0798-0.19964 0-0.39928 0.0998-0.4991 0.27949l-0.07985 0.15972 0.15971 0.0998c0.07986 0.0399 0.17967 0.0799 0.27949 0.0799 0.17967 0 0.35935-0.0998 0.47913-0.2795l0.09982-0.17967zm-8.6244 11.359c0.27949 0.39928 0.73867 0.57896 1.1779 0.57896 0.29946 0 0.59892-0.0798 0.83849-0.2795l0.41924-0.29946-0.29946-0.37931c-0.27949-0.37932-0.7187-0.59892-1.1779-0.59892-0.29946 0-0.59892 0.0799-0.83849 0.27949l-0.41924 0.29946zm3.873-5.5899v0.11979c0 0.97823 0.73867 1.7968 1.7369 1.8367l0.61888 0.0399 0.05989-0.63885v-0.0599c0-0.97823-0.75863-1.8367-1.7568-1.9165h-0.63885zm4.3122 1.6171c-0.17967-0.11978-0.35935-0.15971-0.53902-0.15971-0.33938 0-0.65881 0.15971-0.85845 0.45917l-0.17967 0.29946 0.27949 0.17967c0.17967 0.0998 0.33938 0.15972 0.53902 0.15972 0.33938 0 0.65881-0.15972 0.85845-0.45918l0.19964-0.29946zm2.6352 1.6969c-0.2196-0.69873-0.83848-1.1779-1.5372-1.1779-0.13975 0-0.29946 0.0399-0.43921 0.0799l-0.4991 0.13975 0.13975 0.51906c0.19964 0.69874 0.81852 1.1579 1.4973 1.1579 0.13975 0 0.29946-0.0399 0.45917-0.0798l0.53902-0.13975zm3.2741-4.452c-0.11978-0.15971-0.29946-0.23956-0.47913-0.23956-0.15971 0-0.29946 0.0599-0.43921 0.17967l-0.15971 0.11978 0.15971 0.17968c0.11978 0.15971 0.27949 0.2196 0.45917 0.2196 0.15971 0 0.33938-0.0399 0.45917-0.15971l0.15971-0.13975zm-10.781 1.6171c0.05989-0.0799 0.09982-0.17968 0.09982-0.29946 0-0.13975-0.07985-0.2795-0.19964-0.37932l-0.11978-0.0798-0.09982 0.11978c-0.07985 0.0799-0.11978 0.17968-0.11978 0.2795 0 0.13974 0.07986 0.29946 0.19964 0.37931l0.11978 0.11978zm-4.2124-19.864c0.7786-0.0998 1.3176-0.73867 1.3176-1.4973v-0.21961l-0.07985-0.51906-0.51906 0.0799c-0.75863 0.0998-1.2977 0.73867-1.2977 1.4973v0.23957l0.07986 0.4991zm2.3358 1.5173c-0.35935-0.15971-0.75863-0.21961-1.1579-0.21961-1.1579 0-2.236 0.65881-2.7151 1.7968l-0.37932 0.93831 0.91834 0.37931c0.35935 0.15972 0.75863 0.23957 1.1579 0.23957 1.1579 0 2.236-0.67877 2.7151-1.8167l0.37932-0.91834zm7.2469 9.7224c-0.51906 0.17968-0.83848 0.65881-0.83848 1.1779 0 0.13975 0.01998 0.29947 0.07986 0.43921l0.13975 0.39928 0.39928-0.15971c0.4991-0.15971 0.79856-0.63885 0.79856-1.1579 0-0.13974 0-0.29946-0.05989-0.4392l-0.13975-0.37932zm-2.755 6.5282c-0.33938 0.0399-0.63885 0.33938-0.63885 0.7187v0.0799l0.03993 0.25953 0.2196-0.0399c0.39928-0.0399 0.65881-0.37931 0.65881-0.73866v-0.31937zm-1.9764-15.432c-0.05989-0.02-0.15971-0.02-0.2196-0.02-0.65881 0-1.2577 0.4392-1.3575 1.118l-0.07985 0.45917 0.45917 0.0799c0.07986 0.02 0.15971 0.02 0.23957 0.02 0.63885 0 1.2378-0.45917 1.3376-1.118l0.07986-0.45917zm0-3.2541c-0.9383 0.19964-1.5372 1.0381-1.5372 1.9365 0 0.13975 0.01995 0.29946 0.03993 0.4392l0.15971 0.67878 0.65881-0.15971c0.91834-0.2196 1.5173-1.0381 1.5173-1.9565 0-0.13975-0.01995-0.29947-0.03993-0.43921l-0.13975-0.63885zm-1.2777-1.098c0.09982 0.53903 0.57895 0.91834 1.098 0.91834 0.07986 0 0.11978 0 0.19964-0.02l0.35935-0.0798-0.05989-0.35935c-0.07985-0.51905-0.55899-0.89836-1.078-0.89836h-0.19964l-0.37931 0.0799zm2.9147 5.7895c-0.15971 0.13975-0.23956 0.33938-0.23956 0.53903 0 0.17967 0.05989 0.37931 0.19964 0.51906l0.19964 0.19964 0.17967-0.17968c0.13975-0.13974 0.23957-0.35935 0.23957-0.55898 0-0.19964-0.07985-0.37932-0.2196-0.51907l-0.17967-0.17967zm3.1743 0.0599c-0.19964-0.0599-0.39928-0.0998-0.59892-0.0998-0.7786 0-1.4973 0.47913-1.7568 1.2378l-0.19964 0.59892 0.57895 0.2196c0.19964 0.0599 0.41924 0.0998 0.59892 0.0998 0.7786 0 1.4973-0.49909 1.7369-1.2777l0.19964-0.57895zm-0.89838 5.1906c0.11978 0.29946 0.39928 0.47913 0.69874 0.47913 0.09982 0 0.17967-0.02 0.25953-0.0599l0.23957-0.0798-0.09982-0.23956c-0.09982-0.29946-0.39928-0.4991-0.69874-0.4991-0.07985 0-0.17967 0.0199-0.25953 0.0599l-0.23956 0.0998zm2.9946-8.1652c0.03993 0.19964 0.2196 0.35935 0.41924 0.35935h0.03993l0.13975-0.0199-0.01995-0.13975c-0.01995-0.19964-0.19964-0.35935-0.41924-0.35935h-0.01995l-0.15971 0.0399zm5.3304 11c-0.11978 0.0998-0.15971 0.2196-0.15971 0.33938s0.03993 0.25953 0.13975 0.35935l0.09982 0.11979 0.13975-0.11979c0.07986-0.0799 0.13975-0.23956 0.13975-0.35935 0-0.11978-0.05989-0.23956-0.13975-0.33938l-0.09982-0.11978zm-13.296 8.4048c-0.4991-0.25953-1.0381-0.37932-1.5572-0.37932-1.2577 0-2.4955 0.69874-3.0944 1.8966l-0.53902 1.0381 1.0381 0.53903c0.51906 0.27949 1.0581 0.39928 1.5771 0.39928 1.2577 0 2.4755-0.69874 3.0944-1.8966l0.53902-1.0581zm11.08-5.6698c0.07986 0.75863 0.7187 1.2777 1.4174 1.2777 0.05989 0 0.09982-0.0199 0.15971-0.0199l0.4991-0.0599-0.07985-0.49909c-0.07985-0.75863-0.67878-1.2777-1.3775-1.2777-0.07985 0-0.11978 0.02-0.19964 0.02l-0.4991 0.0599zm-2.8149-6.3485c0.11978 0.61888 0.69874 1.078 1.3176 1.078 0.09982 0 0.15971 0 0.25953-0.02l0.43921-0.0798-0.07985-0.43921c-0.11978-0.6588-0.67878-1.098-1.3176-1.098-0.07985 0-0.15971 0-0.23956 0.02l-0.43921 0.0998zm-8.5845 14.993c-0.27949 0.0599-0.43921 0.27949-0.43921 0.55899v0.11978l0.01995 0.17967 0.17967-0.0199c0.25953-0.0599 0.45917-0.29946 0.45917-0.57895 0-0.0199 0-0.0798-0.01995-0.11978l-0.03993-0.17968zm6.2287-21.521c0.41924-0.35935 0.63885-0.85844 0.63885-1.3975 0-0.37931-0.11978-0.75863-0.35935-1.098l-0.35935-0.45917-0.47913 0.37932c-0.43921 0.33938-0.67878 0.85844-0.67878 1.3775 0 0.35935 0.11978 0.77859 0.37932 1.078l0.35935 0.47913zm2.236 9.403c0.15971 0.0399 0.31942 0.0599 0.47913 0.0599 0.59892 0 1.1779-0.33938 1.3775-0.9383l0.17967-0.47914-0.47913-0.15971c-0.15971-0.0399-0.31942-0.0798-0.47913-0.0798-0.59892 0-1.1579 0.35936-1.3775 0.95827l-0.17967 0.47914zm-4.6915 12.517c-0.31942 0.17967-0.51906 0.53902-0.51906 0.87841 0 0.15971 0.03993 0.33939 0.11978 0.47914l0.15971 0.31942 0.31942-0.15971c0.33938-0.17967 0.51906-0.51906 0.51906-0.89838 0-0.15971-0.01998-0.31942-0.11978-0.47913l-0.15971-0.29946zm2.3557-20.144h0.05989c0.35935 0 0.67878-0.29946 0.69874-0.67878l0.01995-0.25953h-0.29945c-0.35935 0-0.65881 0.29946-0.69874 0.67878l-0.01998 0.23956zm0.53902 5.0708c-0.05989 0.13975-0.09982 0.27949-0.09982 0.41924 0 0.45917 0.27949 0.89838 0.73867 1.098l0.37932 0.15971 0.13975-0.37931c0.03993-0.13975 0.07986-0.2795 0.07986-0.43921 0-0.4392-0.27949-0.87841-0.73867-1.0581l-0.33938-0.15971zm7.1471 5.4901c0.01998-0.0798 0.01998-0.13975 0.01998-0.17968 0-0.51906-0.37932-0.9383-0.89838-1.0381l-0.33938-0.0798-0.07985 0.35935c0 0.0599-0.01995 0.0998-0.01995 0.15971 0 0.4991 0.39928 0.97824 0.89838 1.078l0.35935 0.0399zm-2.0363 4.8113c-0.37932 0-0.7187 0.31942-0.73867 0.69874v0.25953h0.27948c0.39928 0 0.69874-0.31943 0.7187-0.67878v-0.25953zm-2.1761-4.412c-0.31942 0.33939-0.51906 0.7786-0.51906 1.2378 0 0.39928 0.13975 0.79855 0.45917 1.118l0.39928 0.39928 0.39928-0.39928c0.35935-0.29946 0.51906-0.73867 0.51906-1.1779 0-0.41924-0.13975-0.83849-0.45917-1.1579l-0.39928-0.39927zm-1.4973-0.19963c0.09982 0.29946 0.37932 0.4991 0.67878 0.4991 0.07986 0 0.15971 0 0.23957-0.0399l0.25953-0.0599-0.09982-0.25954c-0.09982-0.31942-0.37931-0.47913-0.69874-0.47913-0.05989 0-0.15971 0-0.2196 0.0199l-0.23956 0.0799zm-2.5753 2.4755h-0.01995c-0.7187 0-1.2977 0.57895-1.3376 1.2976l-0.01995 0.43921 0.45917 0.02h0.03993c0.7187 0 1.3376-0.55899 1.3376-1.2777v-0.45917zm-0.39928-0.73866c-0.05989-0.02-0.11978-0.0399-0.19964-0.0399-0.27949 0-0.53902 0.2196-0.61888 0.49909l-0.05989 0.21961 0.2196 0.0399c0.05989 0.0199 0.11978 0.0399 0.17967 0.0399 0.27949 0 0.53902-0.19964 0.61888-0.47914l0.07986-0.19964zm1.6969 0.85844c-0.29946 0.19964-0.4392 0.51907-0.4392 0.83849 0 0.13975 0.01995 0.29946 0.11978 0.43921l0.15971 0.27949 0.27949-0.17967c0.27949-0.17968 0.4392-0.47914 0.4392-0.79856 0-0.15971-0.05989-0.31942-0.13975-0.45917l-0.15971-0.25953zm3.7732 0.45918c-0.03993-0.02-0.11978-0.0399-0.15971-0.0399-0.27949 0-0.4991 0.17967-0.57895 0.4392l-0.05989 0.19964 0.19964 0.0599c0.05989 0 0.11978 0.02 0.17967 0.02 0.25953 0 0.47913-0.15971 0.55899-0.43921l0.07986-0.17967zm-1.098-0.0599c-0.11978-0.41925-0.4991-0.7187-0.9383-0.7187-0.05989 0-0.13975 0.0199-0.19964 0.0399l-0.33938 0.0799 0.07986 0.31942c0.11978 0.41924 0.4991 0.7187 0.91834 0.7187 0.07986 0 0.15971 0 0.23957-0.02l0.31942-0.0798zm-16.291-1.6171c-0.09982-0.0599-0.2196-0.0798-0.33938-0.0798-0.39928 0-0.7187 0.23957-0.85845 0.61888l-0.11978 0.31942 0.29946 0.0998c0.09982 0.0399 0.2196 0.0599 0.31942 0.0599 0.39928 0 0.75863-0.23956 0.89838-0.61888l0.09982-0.31942zm1.2178 6.9874c-0.05989 0-0.09982-0.02-0.15971-0.02-0.53902 0-1.0182 0.43921-1.078 1.0182l-0.05989 0.37931 0.37932 0.0399h0.11978c0.57895 0 1.098-0.41924 1.1579-0.99819l0.01995-0.37932zm0.65881-1.657c-0.25953-0.13974-0.4991-0.2196-0.75863-0.2196-0.4991 0-0.97823 0.25953-1.2577 0.69874l-0.25953 0.39928 0.41924 0.27949c0.25953 0.13975 0.51906 0.19964 0.77859 0.19964 0.4991 0 0.95827-0.23957 1.2378-0.67878l0.27949-0.4392zm-5.2705-0.61888c0.05989-0.15971 0.05989-0.31942 0.05989-0.47913 0-0.73867-0.4991-1.4574-1.2577-1.657l-0.55899-0.15971-0.17967 0.55899c-0.03993 0.15971-0.03993 0.31942-0.03993 0.45917 0 0.7786 0.47913 1.4574 1.2577 1.677l0.55899 0.17967zm5.8494-1.098c0.27949 0.4991 0.83848 0.7786 1.3775 0.7786 0.27949 0 0.55899-0.0599 0.81852-0.2196l0.45917-0.2795-0.25953-0.47913c-0.31942-0.4991-0.85845-0.7786-1.3975-0.7786-0.27949 0-0.55899 0.0799-0.81852 0.21961l-0.47913 0.27949zm8.9838-0.11978c-0.39928 0.15971-0.61888 0.53903-0.61888 0.93831 0 0.11978 0.01995 0.25953 0.05989 0.37931l0.11978 0.33939 0.33938-0.13975c0.39928-0.17968 0.65881-0.55899 0.65881-0.95827 0-0.11978-0.01995-0.25953-0.07985-0.37931l-0.13975-0.31943zm-2.2559 2.3358c-0.07985-0.19964-0.31942-0.31942-0.55899-0.31942-0.07985 0-0.13975 0.02-0.2196 0.02l-0.15971 0.0799 0.05989 0.17967c0.09982 0.19964 0.31942 0.33938 0.53902 0.33938 0.07986 0 0.15971-0.02 0.23957-0.0399l0.17967-0.0599zm-2.3957 1.7768c-0.27949 0.0599-0.43921 0.27949-0.43921 0.55899v0.11978l0.01995 0.17967 0.17967-0.0199c0.25953-0.0599 0.45917-0.29946 0.45917-0.57895 0-0.0199 0-0.0798-0.01995-0.11978l-0.03993-0.17968zm-4.0527-3.1343c-0.27949 0.0599-0.45917 0.29946-0.45917 0.57895v0.0998l0.03993 0.2196 0.17967-0.0599c0.25953-0.0599 0.4392-0.29946 0.4392-0.57895v-0.0998l-0.03993-0.19964zm-3.8131-14.953c-0.23956 0.25953-0.33938 0.55899-0.33938 0.87842 0 0.35935 0.15971 0.73866 0.45917 0.99819l0.33938 0.27949 0.29946-0.33938c0.2196-0.23956 0.31942-0.53902 0.31942-0.85845 0-0.35935-0.15971-0.73866-0.43921-0.99819l-0.33938-0.31943zm-3.1743 0.2196c0.13975 0.13975 0.33938 0.19964 0.51906 0.19964 0.19964 0 0.39928-0.0599 0.53902-0.2196l0.17967-0.17968-0.17967-0.19963c-0.13975-0.13975-0.31942-0.19964-0.51906-0.19964-0.19964 0-0.39928 0.0799-0.55899 0.2196l-0.15971 0.19964zm2.4755-0.13975c-0.13975-0.0798-0.27949-0.0998-0.41924-0.0998-0.39928 0-0.75863 0.23957-0.9383 0.59892l-0.11978 0.29946 0.31942 0.13975c0.11978 0.0599 0.25953 0.0799 0.39928 0.0799 0.37932 0 0.75863-0.2196 0.91834-0.57895l0.13975-0.31943zm2.5753 0c-0.37932 0.31943-0.57895 0.81853-0.57895 1.2977 0 0.41924 0.13975 0.83848 0.39928 1.1579l0.37932 0.45917 0.43921-0.35935c0.37931-0.33939 0.57895-0.81853 0.57895-1.2977 0-0.39928-0.13975-0.81852-0.41924-1.1579l-0.37932-0.47913zm-6.2886-0.47913c0.11978 0.17967 0.31942 0.27949 0.51906 0.27949 0.09982 0 0.17967-0.02 0.27949-0.0799l0.15971-0.0798-0.09982-0.17967c-0.09982-0.17967-0.29946-0.25953-0.47913-0.25953-0.11978 0-0.2196 0.0199-0.29946 0.0599l-0.15971 0.0998zm2.8349-1.0182c-0.25953-0.39928-0.69874-0.61888-1.1579-0.61888-0.25953 0-0.53902 0.0799-0.7786 0.2196l-0.37931 0.2795 0.23957 0.39928c0.27949 0.37931 0.7187 0.59891 1.1579 0.59891 0.25953 0 0.51906-0.0799 0.7786-0.23956l0.39928-0.25953zm3.3739-2.4955c0.95827-0.15971 1.637-0.95827 1.637-1.8966 0-0.0998-0.01995-0.19964-0.03993-0.31942l-0.09982-0.63885-0.63885 0.0998c-0.95827 0.15971-1.637 0.95827-1.637 1.8966 0 0.0998 0.01995 0.21961 0.03993 0.31943l0.09982 0.63884zm-0.59892 16.75c-0.41924-0.87841-1.2977-1.3975-2.1761-1.3975-0.33938 0-0.69874 0.0799-1.0182 0.21961l-0.75863 0.35935 0.33938 0.75863c0.41924 0.87841 1.2777 1.3775 2.1761 1.3775 0.35935 0 0.7187-0.0599 1.0381-0.21961l0.75863-0.35935zm-5.7895-0.29946c-0.17967 0.0399-0.27949 0.17967-0.27949 0.37932v0.0599l0.01995 0.11978 0.11978-0.0199c0.15971-0.0399 0.29946-0.23957 0.29946-0.41925v-0.0399l-0.03993-0.11978zm8.6244-12.497c-0.05989-0.39928-0.4392-0.67878-0.83848-0.67878-0.07985 0-0.11978 0-0.19964 0.02l-0.29946 0.0799 0.09982 0.27949c0.07986 0.39928 0.4392 0.67878 0.81852 0.67878 0.05989 0 0.13975-0.02 0.19964-0.0399l0.29946-0.0599zm-3.7133-5.1906c-0.05989-0.02-0.11978-0.02-0.15971-0.02-0.4392 0-0.85845 0.29946-0.95827 0.75863l-0.03993 0.29946 0.29946 0.0599c0.05989 0.02 0.11978 0.02 0.17967 0.02 0.43921 0 0.83849-0.31943 0.91834-0.75863l0.07986-0.29946zm-1.1779 22.559c0.79856-0.11979 1.4574-0.83849 1.4574-1.677 0-0.0998-0.01995-0.17967-0.03993-0.29946l-0.09982-0.57895-0.57895 0.11978c-0.83849 0.11978-1.4574 0.85845-1.4574 1.657 0 0.0998 0.01998 0.19964 0.03993 0.29947l0.09982 0.57895zm3.2142-2.0563h0.07986c0.37931 0 0.69874-0.27949 0.75863-0.63884l0.03993-0.2795-0.25953-0.02h-0.07985c-0.37931 0-0.7187 0.2795-0.77859 0.65881l-0.01998 0.23957zm-1.2777 0c0.05989 0.0399 0.13975 0.0599 0.2196 0.0599 0.2196 0 0.43921-0.13974 0.51906-0.37931l0.07986-0.17967-0.17967-0.0599c-0.05989-0.0399-0.15971-0.0599-0.2196-0.0599-0.23956 0-0.4392 0.13974-0.53902 0.37931l-0.05989 0.17967zm1.1379-0.77859c0.35935-0.17967 0.57895-0.55899 0.57895-0.93831 0-0.13974-0.01995-0.27949-0.09982-0.41924l-0.15971-0.31942-0.29946 0.13974c-0.35935 0.17968-0.57895 0.559-0.57895 0.95827 0 0.13975 0.01998 0.2795 0.07986 0.41925l0.17967 0.29946zm-3.1343-17.528c0.05989-0.0998 0.07986-0.2196 0.07986-0.31942 0-0.33939-0.19964-0.65881-0.53902-0.7786l-0.25953-0.11978-0.09982 0.25953c-0.05989 0.11979-0.07985 0.21961-0.07985 0.35935 0 0.31943 0.19964 0.63885 0.51906 0.75863l0.25953 0.11978zm0.91834 0.53903c0.13975-0.17968 0.19964-0.39928 0.19964-0.59892 0-0.25953-0.09982-0.53903-0.31942-0.7187l-0.23956-0.19964-0.19964 0.23957c-0.13975 0.17967-0.2196 0.37931-0.2196 0.57895 0 0.2795 0.09982 0.53903 0.33938 0.71871l0.23957 0.2196zm1.7369-1.138c-0.09982-0.0399-0.23956-0.0599-0.33938-0.0599-0.33938 0-0.67878 0.21961-0.81852 0.559l-0.11978 0.27949 0.27949 0.0998c0.11978 0.0599 0.2196 0.0799 0.33938 0.0799 0.35935 0 0.69874-0.21961 0.81852-0.53903l0.11978-0.27949zm1.2777 0.53903v-0.0998c0-0.27949-0.19964-0.53903-0.4991-0.57895l-0.19964-0.0399-0.01995 0.19964v0.11978c0 0.27949 0.19964 0.49909 0.4991 0.55899l0.17967 0.0399zm-5.6897 0.77859c0.37932-0.0599 0.63885-0.37931 0.63885-0.73866 0-0.0199-0.01998-0.0798-0.01998-0.11979l-0.05989-0.25953-0.23956 0.0399c-0.35935 0.0599-0.63885 0.37932-0.63885 0.75863 0 0.0199 0.01995 0.0799 0.01995 0.11978l0.05989 0.23957zm4.9111 1.0581c-0.27949-0.65881-0.91834-1.078-1.6171-1.078-0.23956 0-0.45917 0.0399-0.69874 0.13975l-0.55899 0.2196 0.25953 0.55899c0.27949 0.67878 0.91834 1.098 1.5971 1.098 0.23957 0 0.47913-0.0399 0.7187-0.13975l0.55899-0.23956zm10.98-0.91834c0.23957-0.0399 0.4392-0.25954 0.4392-0.51907v-0.0998l-0.03993-0.17967-0.17967 0.0399c-0.23956 0.0399-0.43921 0.25953-0.43921 0.51906v0.0998l0.03993 0.17968zm-0.7786-4.6516c0 0.31942 0.27949 0.57895 0.59892 0.57895l0.19964-0.02v-0.19963c-0.01995-0.29946-0.27949-0.53903-0.57895-0.53903h-0.21959zm-10.281 18.147c-0.03993 0.11978-0.05989 0.25953-0.05989 0.37931 0 0.57895 0.39928 1.098 0.97823 1.2977l0.45917 0.0998 0.09982-0.43921c0.03993-0.11978 0.03993-0.25953 0.03993-0.37931 0-0.57896-0.35935-1.098-0.95827-1.2777l-0.4392-0.11978zm2.7151 8.5246c0.03993-0.0998 0.07986-0.2196 0.07986-0.31942 0-0.33939-0.19964-0.63885-0.53902-0.7786l-0.25953-0.11978-0.11978 0.25953c-0.05989 0.0998-0.05989 0.21961-0.05989 0.31943 0 0.33938 0.19964 0.63884 0.51906 0.77859l0.25953 0.13975zm-1.4174-0.35935c0.13975-0.17967 0.2196-0.35935 0.2196-0.57895 0-0.25954-0.13975-0.51907-0.33938-0.7187l-0.23956-0.21961-0.19964 0.25954c-0.13975 0.17967-0.23956 0.39928-0.23956 0.59891 0 0.27949 0.13975 0.51906 0.33938 0.71871l0.23957 0.17967zm-3.0944-2.5354c-0.31942 0.13975-0.51906 0.47914-0.51906 0.83849 0 0.11978 0.03993 0.25953 0.07986 0.37931l0.13975 0.2795 0.29946-0.11979c0.33938-0.15971 0.51906-0.49909 0.51906-0.81852 0-0.13975-0.01995-0.27949-0.09982-0.41924l-0.13975-0.27949zm-2.5953-0.4392c0.2196-0.0599 0.37932-0.25954 0.37932-0.47914 0-0.0399-0.01998-0.0799-0.01998-0.0998l-0.03993-0.13975-0.15971 0.02c-0.2196 0.0599-0.35935 0.23957-0.35935 0.43921 0 0.0399 0 0.0998 0.01995 0.11978l0.01998 0.15971zm0.63884-1.7369c0.05989 0.0399 0.13975 0.0399 0.19964 0.0399 0.19964 0 0.39928-0.0998 0.4991-0.2795l0.07986-0.17967-0.13975-0.0399c-0.05989-0.0399-0.13975-0.0599-0.2196-0.0599-0.19964 0-0.37931 0.0998-0.47913 0.27949l-0.07985 0.15971zm3.5935-2.6153c-0.05989-0.35935-0.39928-0.59891-0.75863-0.59891-0.03993 0-0.11978 0-0.15971 0.0199l-0.27949 0.0399 0.07986 0.25953c0.05989 0.37931 0.39928 0.59891 0.75863 0.59891 0.03993 0 0.11978 0 0.15971-0.0199l0.27949-0.0599zm-2.4755-12.717v-0.0599c0-0.21961-0.13975-0.39928-0.35935-0.43921l-0.13975-0.02-0.01995 0.13975c0 0.0399-0.01998 0.0599-0.01998 0.0799 0 0.2196 0.17967 0.37931 0.35935 0.41924l0.15971 0.0199zm-0.25953-1.6171c-0.15971-0.23957-0.41924-0.37932-0.69874-0.37932-0.13975 0-0.27949 0.0399-0.39928 0.0998l-0.23956 0.15971 0.13975 0.23957c0.15971 0.25953 0.41924 0.37931 0.67878 0.37931 0.15971 0 0.29946-0.0399 0.41924-0.0998l0.23957-0.15971zm0.63885 5.53c-2.3757 0.4991-4.0327 2.5754-4.0327 4.9311 0 0.31943 0.01998 0.63885 0.09982 0.97823l0.31942 1.677 1.6969-0.31942c2.3957-0.47914 4.0327-2.6153 4.0327-4.971 0-0.29946-0.03993-0.61888-0.07985-0.9383l-0.31942-1.677zm-2.0762-0.53902c0.19964-0.19964 0.27949-0.41925 0.27949-0.65881 0-0.25953-0.09982-0.51906-0.29946-0.7187l-0.2196-0.2196-0.23956 0.2196c-0.17967 0.19964-0.27949 0.43921-0.27949 0.69874 0 0.23956 0.09982 0.47913 0.29946 0.67877l0.2196 0.21961zm1.2178-1.078c-0.4392 0.0599-0.77859 0.4392-0.77859 0.87841v0.11978l0.01995 0.2795 0.31942-0.02c0.43921-0.0599 0.7786-0.41925 0.7786-0.85845 0-0.0399-0.01995-0.0998-0.01995-0.11978l-0.01998-0.29947zm-2.755 1.4773c-0.17967-0.45917-0.61888-0.73867-1.098-0.73867-0.15971 0-0.33938 0.0399-0.4991 0.11978l-0.35935 0.13975 0.13975 0.37932c0.2196 0.45917 0.65881 0.73866 1.1379 0.73866 0.15971 0 0.29946-0.0199 0.45917-0.0998l0.37931-0.15971zm0.69874-1.2777v-0.0599c0-0.85845-0.67878-1.5772-1.5572-1.6171h-0.55899v0.61893c0 0.85844 0.67878 1.5771 1.5372 1.6171h0.53902zm17.828 17.329v0.0998c0 0.69873 0.51906 1.2577 1.1978 1.3176l0.4392 0.0399 0.03993-0.45918v-0.0998c0-0.67877-0.51906-1.2777-1.2178-1.3176l-0.43921-0.0399zm-19.684-10.361c0.09982-0.19964 0.13975-0.37931 0.13975-0.57895 0-0.4991-0.29946-0.9982-0.79855-1.2378l-0.39928-0.17967-0.19964 0.41924c-0.07985 0.19964-0.13975 0.39928-0.13975 0.59892 0 0.4991 0.29946 0.97823 0.79856 1.1978l0.39928 0.19964zm6.1289 0.61888h0.09982c0.37932 0 0.7187-0.27949 0.73867-0.67877l0.03993-0.23957-0.25953-0.0599h-0.07985c-0.37932 0-0.69874 0.29946-0.73867 0.67878l-0.03993 0.25953zm20.443 7.7061c-0.05989 0.15971-0.07985 0.29946-0.07985 0.4392 0 0.43921 0.27949 0.87842 0.7187 1.078l0.35935 0.13975 0.15971-0.35935c0.05989-0.13975 0.09982-0.27949 0.09982-0.41924 0-0.45918-0.29946-0.89838-0.73867-1.078l-0.37932-0.15971zm-2.8349 4.9311c0.01995-0.0798 0.03993-0.17967 0.03993-0.25953 0-0.2196-0.11978-0.41924-0.31942-0.51906l-0.17967-0.0798-0.07985 0.17967c-0.01995 0.0998-0.03993 0.15971-0.03993 0.23957 0 0.2196 0.11978 0.41924 0.31942 0.51906l0.15971 0.0799zm-24.176-10.361c0.19964 0.21961 0.47913 0.33939 0.75863 0.33939 0.25953 0 0.47913-0.0998 0.67878-0.25954l0.25953-0.25953-0.23956-0.23956c-0.19964-0.21961-0.47913-0.33939-0.75863-0.33939-0.25953 0-0.4991 0.0998-0.69874 0.2795l-0.25953 0.25953zm1.5372-7.3268c-0.25953-0.11978-0.53902-0.15971-0.81852-0.15971-0.79855 0-1.5572 0.45917-1.8966 1.2577l-0.25953 0.63885 0.63885 0.27949c0.25953 0.0998 0.53902 0.15971 0.79856 0.15971 0.81852 0 1.5771-0.47913 1.8966-1.2577l0.27949-0.63884zm22.739 10.86c-0.07985 0.0998-0.13975 0.21961-0.13975 0.35936 0 0.11978 0.03993 0.23956 0.11978 0.35935l0.11978 0.0998 0.11978-0.0998c0.11978-0.11978 0.15971-0.23957 0.15971-0.37932 0-0.11978-0.03993-0.23956-0.13975-0.33938l-0.09982-0.11978zm0.05989 1.8966c0.11978 0.0199 0.2196 0.0399 0.33938 0.0399 0.41924 0 0.83849-0.23957 0.97823-0.65881l0.13975-0.33938-0.33938-0.11979c-0.09982-0.0399-0.23956-0.0599-0.35935-0.0599-0.41924 0-0.79856 0.2795-0.95827 0.69874l-0.11978 0.31942zm-24.875-7.4066c0 0.43921 0.37931 0.79856 0.83849 0.83849h0.25953v-0.29943c0-0.41925-0.37932-0.75863-0.79856-0.79856h-0.27949zm25.714 7.4665c-0.87841 0.57895-1.3575 1.5372-1.3575 2.5354 0 0.55899 0.15971 1.1379 0.4991 1.637l0.55899 0.85845 0.85845-0.55899c0.87841-0.57895 1.3575-1.5173 1.3575-2.4955 0-0.57895-0.15971-1.1579-0.4991-1.657l-0.55899-0.85844zm-2.236 2.6153c-0.33938 0.23957-0.51906 0.61888-0.51906 0.9982 0 0.2196 0.03993 0.41924 0.17967 0.61888l0.2196 0.33938 0.33938-0.2196c0.31942-0.23957 0.53902-0.61888 0.53902-0.9982 0-0.2196-0.07985-0.41924-0.19964-0.61888l-0.2196-0.31942zm-20.822-16.311c0.09982 0.31943 0.37932 0.53903 0.69874 0.53903 0.07986 0 0.13975-0.0199 0.2196-0.0399l0.2196-0.0599-0.05989-0.25953c-0.09982-0.29947-0.39928-0.51907-0.7187-0.51907-0.05989 0-0.11978 0.02-0.17967 0.0399l-0.25953 0.0599zm2.795-0.65881c0.05989 0.02 0.11978 0.0399 0.17967 0.0399 0.23957 0 0.45917-0.13974 0.55899-0.35935l0.05989-0.15971-0.17967-0.0998c-0.05989-0.02-0.13975-0.0399-0.19964-0.0399-0.23956 0-0.45917 0.13975-0.53902 0.35935l-0.07985 0.19964zm17.948 14.095c-0.29946 0.31942-0.45917 0.73866-0.45917 1.1579 0 0.35935 0.11978 0.73866 0.35935 1.0182l0.33938 0.37932 0.35935-0.35935c0.31942-0.31943 0.45917-0.73867 0.45917-1.1579 0-0.37931-0.11978-0.73867-0.37931-1.0182l-0.31942-0.39928zm3.3939 4.7913h-0.01995c-0.37932 0-0.69874 0.29946-0.7187 0.65881v0.25953h0.2795c0.35935 0 0.67878-0.29946 0.67878-0.67878l0.01995-0.2196zm-4.8113-3.294c-0.01995 0.0599-0.03993 0.15971-0.03993 0.2196 0 0.33939 0.19964 0.63885 0.53902 0.73867l0.23957 0.0799 0.07986-0.25953c0.03993-0.0799 0.03993-0.15971 0.03993-0.23957 0-0.31942-0.2196-0.61888-0.53902-0.7187l-0.25953-0.0998zm0.79856 1.5772c0.03993 0.02 0.07986 0.02 0.11978 0.02 0.19964 0 0.37932-0.11978 0.45917-0.29946l0.03993-0.13975-0.13975-0.0599c-0.05989-0.02-0.09982-0.0399-0.13975-0.0399-0.19964 0-0.37931 0.13975-0.4392 0.31943l-0.05989 0.13974z" fill="url(#linearGradient854)" style="mix-blend-mode:normal" data-paper-data='{"isPathIcon":true}'/>
 </g>
</svg>
